<svg xmlns="http://www.w3.org/2000/svg" xmlns:xlink="http://www.w3.org/1999/xlink" width="180" height="180" viewBox="0 0 180 180"><defs><clipPath id="b"><rect width="180" height="180"/></clipPath></defs><g id="a" clip-path="url(#b)"><rect width="180" height="180" fill="#fff"/><path d="M-913.68,447.691l-12.871-7.43V415.49l21.481,11.857,21.481-11.857v24.771l-12.871,7.43A17.2,17.2,0,0,1-905.07,450,17.2,17.2,0,0,1-913.68,447.691Zm54.973-91.169a3.71,3.71,0,0,0-5.567-3.213l-40.765,23-40.828-23a3.71,3.71,0,0,0-5.567,3.213V425.9l-7.957-4.595a17.231,17.231,0,0,1-8.61-14.91V353.608a17.232,17.232,0,0,1,8.61-14.912l45.71-26.386a17.207,17.207,0,0,1,17.22,0l45.711,26.386a17.228,17.228,0,0,1,8.61,14.912v52.785a17.227,17.227,0,0,1-8.61,14.91l-7.957,4.595Z" transform="translate(995.001 -290)" fill="#44c9f6" stroke="rgba(0,0,0,0)" stroke-miterlimit="10" stroke-width="1"/></g></svg>